ffmpeg started on 2023-01-29 at 04:45:25
Report written to "D:/java/GitHub/pornMagnetSpringBoot/jiuse911Modeul/Logs/2023-01-29_04-45-02-315_ffreport.log"
Command line:
"D:\\java\\GitHub\\pornMagnetSpringBoot\\ffmpeg.exe" -loglevel warning -i "concat:00.ts|01.ts|02.ts|03.ts|04.ts|05.ts|06.ts|07.ts|08.ts|09.ts|10.ts|11.ts|12.ts|13.ts|14.ts|" -map "0:v?" -map "0:a?" -map "0:s?" -metadata "date=2023-01-29T04:45:25.8443991+08:00" -metadata "encoding_tool=" -metadata "title=" -metadata "copyright=" -metadata "comment=" -metadata:s:a:0 "handler_name=" -metadata:s:a:0 "handler=" -c copy -y -bsf:a aac_adtstoasc "D:\\java\\GitHub\\pornMagnetSpringBoot\\Downloads\\\xd4\xda\xc5\xae\xc9\xfa\xc7\xde\xca\xd2\xb2\xd9\xc5\xae\xd3\xd1\xa3\xac\xcb\xfd\xca\xd2\xd3\xd1\xcc\xfd\xbc\xfb\xbd\xd0\xc9\xf9\xc8\xab\xbc\xc5\xbe\xb2\xcf\xc2\xc0\xb4\xc1\xcb\xa3\xac\xce\xde\xcc\xd7\xc4\xda\xc9\xe4.mp4"
ffmpeg version N-94813-g85386c36e3-ffmpeg-for-N_m3u8DL-CLI Copyright (c) 2000-2019 the FFmpeg developers
  built with gcc 8.2.0 (GCC)
  libavutil      56. 35.100 / 56. 35.100
  libavcodec     58. 56.101 / 58. 56.101
  libavformat    58. 32.104 / 58. 32.104
  libavfilter     7. 58.102 /  7. 58.102
  libavresample   4.  0.  0 /  4.  0.  0
  libswresample   3.  6.100 /  3.  6.100
Input #0, mpegts, from 'concat:00.ts|01.ts|02.ts|03.ts|04.ts|05.ts|06.ts|07.ts|08.ts|09.ts|10.ts|11.ts|12.ts|13.ts|14.ts|':
  Duration: 00:02:23.26, start: 1.456778, bitrate: 663 kb/s
  Program 1 
    Metadata:
      service_name    : Service01
      service_provider: FFmpeg
    Stream #0:0[0x100]: Video: h264 ([27][0][0][0] / 0x001B), yuv420p(progressive), 600x368 [SAR 1838:1841 DAR 68925:42343], 25 fps, 25 tbr, 90k tbn, 50 tbc
    Stream #0:1[0x101](und): Audio: aac ([15][0][0][0] / 0x000F), 44100 Hz, stereo, fltp, 4 kb/s
Output #0, mp4, to 'D:\java\GitHub\pornMagnetSpringBoot\Downloads\在女生寝室操女友，她室友听见叫声全寂静下来了，无套内射.mp4':
  Metadata:
    date            : 2023-01-29T04:45:25.8443991+08:00
    encoder         : Lavf58.32.104
    Stream #0:0: Video: h264 (avc1 / 0x31637661), yuv420p(progressive), 600x368 [SAR 1838:1841 DAR 68925:42343], q=2-31, 25 fps, 25 tbr, 90k tbn, 90k tbc
    Stream #0:1(und): Audio: aac (mp4a / 0x6134706D), 44100 Hz, stereo, fltp, 4 kb/s
Stream mapping:
  Stream #0:0 -> #0:0 (copy)
  Stream #0:1 -> #0:1 (copy)
Press [q] to stop, [?] for help
frame= 3581 fps=0.0 q=-1.0 Lsize=   10929kB time=00:02:23.24 bitrate= 625.0kbits/s speed=2.28e+03x    
video:8785kB audio:2031kB subtitle:0kB other streams:0kB global headers:0kB muxing overhead: 1.044683%
